<svg width="1920" height="1080" viewBox="0 0 1920 1080" fill="none" xmlns="http://www.w3.org/2000/svg">
<g clip-path="url(#clip0)">
<path opacity="0.1" d="M1802.23 709.113C1797.95 726.471 1775.92 735.173 1763.58 748.124C1740.33 772.531 1749.39 808.175 1764.14 836.72C1769.08 846.277 1774.68 856.396 1772.59 866.646C1770.04 879.184 1756.49 888.347 1742.27 893.207C1716.34 902.056 1685.3 899.947 1661.47 887.705C1640.88 877.129 1626.13 859.956 1605.18 849.829C1570.13 832.938 1525.52 839.346 1487.46 850.958C1460.53 859.191 1431.09 869.902 1404.33 861.307C1385.51 855.251 1372.49 840.511 1365.4 824.923C1361.98 817.38 1359.49 809.215 1352.96 803.24C1349.07 799.682 1344 797.16 1338.81 795.039C1291.35 775.614 1231.41 786.017 1185.35 764.471C1154.23 749.923 1134.3 722.482 1125.48 693.862C1116.66 665.243 1117.68 635.236 1119.92 605.759C1121.52 584.793 1124.37 562.457 1140.58 546.288C1157.73 529.188 1187.15 522.854 1213.75 526.08C1240.35 529.305 1264.46 540.917 1285.67 554.557C1312.21 571.614 1336.76 592.846 1369.31 599.753C1391.47 604.458 1414.78 601.88 1437.65 600.986C1475.86 599.5 1514.1 602.836 1552.1 606.437C1570.61 608.207 1589.19 610.064 1607.55 612.752C1611.66 613.352 1615.78 614 1619.89 614.695C1621.95 615.046 1624.01 615.41 1626.06 615.786C1627.67 616.076 1629.27 616.403 1630.87 616.693C1633.39 617.182 1635.9 617.696 1638.41 618.234C1645.6 619.776 1652.73 621.521 1659.79 623.507C1684.32 630.42 1703.98 642.975 1727.14 651.744C1742.24 657.461 1758.7 659.039 1773 666.316C1790.59 675.251 1806.75 690.859 1802.23 709.113Z" fill="#21AAE2"/>
<path d="M1678.15 801.612C1713 801.612 1741.25 773.389 1741.25 738.57C1741.25 703.753 1713 675.529 1678.15 675.529C1643.3 675.529 1615.05 703.753 1615.05 738.57C1615.05 773.389 1643.3 801.612 1678.15 801.612Z" fill="#21AAE2"/>
<path d="M1611.05 784.389C1645.89 784.389 1674.14 756.164 1674.14 721.347C1674.14 686.53 1645.89 658.305 1611.05 658.305C1576.2 658.305 1547.95 686.53 1547.95 721.347C1547.95 756.164 1576.2 784.389 1611.05 784.389Z" fill="#21AAE2"/>
<path d="M1537.18 785.005C1572.03 785.005 1600.28 756.781 1600.28 721.963C1600.28 687.147 1572.03 658.922 1537.18 658.922C1502.33 658.922 1474.08 687.147 1474.08 721.963C1474.08 756.781 1502.33 785.005 1537.18 785.005Z" fill="#21AAE2"/>
<path d="M1513.17 801.612C1548.02 801.612 1576.27 773.389 1576.27 738.57C1576.27 703.753 1548.02 675.529 1513.17 675.529C1478.32 675.529 1450.07 703.753 1450.07 738.57C1450.07 773.389 1478.32 801.612 1513.17 801.612Z" fill="#21AAE2"/>
<path d="M1472.54 807.15C1507.39 807.15 1535.64 778.925 1535.64 744.109C1535.64 709.29 1507.39 681.066 1472.54 681.066C1437.69 681.066 1409.44 709.29 1409.44 744.109C1409.44 778.925 1437.69 807.15 1472.54 807.15Z" fill="#21AAE2"/>
<path d="M1455.92 757.329C1490.76 757.329 1519.01 729.106 1519.01 694.288C1519.01 659.471 1490.76 631.246 1455.92 631.246C1421.07 631.246 1392.82 659.471 1392.82 694.288C1392.82 729.106 1421.07 757.329 1455.92 757.329Z" fill="#21AAE2"/>
<path d="M1474.38 699.511C1509.23 699.511 1537.48 671.286 1537.48 636.469C1537.48 601.652 1509.23 573.427 1474.38 573.427C1439.53 573.427 1411.29 601.652 1411.29 636.469C1411.29 671.286 1439.53 699.511 1474.38 699.511Z" fill="#21AAE2"/>
<path d="M1509.47 699.511C1544.32 699.511 1572.57 671.286 1572.57 636.469C1572.57 601.652 1544.32 573.427 1509.47 573.427C1474.62 573.427 1446.37 601.652 1446.37 636.469C1446.37 671.286 1474.62 699.511 1509.47 699.511Z" fill="#21AAE2"/>
<path d="M1529.79 673.679C1564.64 673.679 1592.89 645.454 1592.89 610.637C1592.89 575.82 1564.64 547.595 1529.79 547.595C1494.94 547.595 1466.69 575.82 1466.69 610.637C1466.69 645.454 1494.94 673.679 1529.79 673.679Z" fill="#21AAE2"/>
<path d="M1581.5 701.971C1616.35 701.971 1644.6 673.747 1644.6 638.93C1644.6 604.113 1616.35 575.888 1581.5 575.888C1546.65 575.888 1518.4 604.113 1518.4 638.93C1518.4 673.747 1546.65 701.971 1581.5 701.971Z" fill="#21AAE2"/>
<path d="M1702.16 757.329C1737.01 757.329 1765.26 729.106 1765.26 694.288C1765.26 659.471 1737.01 631.246 1702.16 631.246C1667.31 631.246 1639.06 659.471 1639.06 694.288C1639.06 729.106 1667.31 757.329 1702.16 757.329Z" fill="#21AAE2"/>
<path d="M1665.84 725.96C1700.68 725.96 1728.93 697.735 1728.93 662.918C1728.93 628.101 1700.68 599.876 1665.84 599.876C1630.99 599.876 1602.74 628.101 1602.74 662.918C1602.74 697.735 1630.99 725.96 1665.84 725.96Z" fill="#21AAE2"/>
<path d="M1642.44 694.59C1677.29 694.59 1705.54 666.365 1705.54 631.548C1705.54 596.731 1677.29 568.506 1642.44 568.506C1607.6 568.506 1579.35 596.731 1579.35 631.548C1579.35 666.365 1607.6 694.59 1642.44 694.59Z" fill="#21AAE2"/>
<path d="M1598.12 647.23C1632.97 647.23 1661.22 619.005 1661.22 584.188C1661.22 549.371 1632.97 521.146 1598.12 521.146C1563.27 521.146 1535.02 549.371 1535.02 584.188C1535.02 619.005 1563.27 647.23 1598.12 647.23Z" fill="#21AAE2"/>
<path d="M1680.61 699.511C1715.46 699.511 1743.71 671.286 1743.71 636.469C1743.71 601.652 1715.46 573.427 1680.61 573.427C1645.76 573.427 1617.51 601.652 1617.51 636.469C1617.51 671.286 1645.76 699.511 1680.61 699.511Z" fill="#21AAE2"/>
<g opacity="0.1">
<path opacity="0.1" d="M1678.15 801.612C1713 801.612 1741.25 773.389 1741.25 738.57C1741.25 703.753 1713 675.529 1678.15 675.529C1643.3 675.529 1615.05 703.753 1615.05 738.57C1615.05 773.389 1643.3 801.612 1678.15 801.612Z" fill="black"/>
<path opacity="0.1" d="M1611.05 784.389C1645.89 784.389 1674.14 756.164 1674.14 721.347C1674.14 686.53 1645.89 658.305 1611.05 658.305C1576.2 658.305 1547.95 686.53 1547.95 721.347C1547.95 756.164 1576.2 784.389 1611.05 784.389Z" fill="black"/>
<path opacity="0.1" d="M1537.18 785.005C1572.03 785.005 1600.28 756.781 1600.28 721.963C1600.28 687.147 1572.03 658.922 1537.18 658.922C1502.33 658.922 1474.08 687.147 1474.08 721.963C1474.08 756.781 1502.33 785.005 1537.18 785.005Z" fill="black"/>
<path opacity="0.1" d="M1513.17 801.612C1548.02 801.612 1576.27 773.389 1576.27 738.57C1576.27 703.753 1548.02 675.529 1513.17 675.529C1478.32 675.529 1450.07 703.753 1450.07 738.57C1450.07 773.389 1478.32 801.612 1513.17 801.612Z" fill="black"/>
<path opacity="0.1" d="M1472.54 807.15C1507.39 807.15 1535.64 778.925 1535.64 744.109C1535.64 709.29 1507.39 681.066 1472.54 681.066C1437.69 681.066 1409.44 709.29 1409.44 744.109C1409.44 778.925 1437.69 807.15 1472.54 807.15Z" fill="black"/>
<path opacity="0.1" d="M1455.92 757.329C1490.76 757.329 1519.01 729.106 1519.01 694.288C1519.01 659.471 1490.76 631.246 1455.92 631.246C1421.07 631.246 1392.82 659.471 1392.82 694.288C1392.82 729.106 1421.07 757.329 1455.92 757.329Z" fill="black"/>
<path opacity="0.1" d="M1474.38 699.511C1509.23 699.511 1537.48 671.286 1537.48 636.469C1537.48 601.652 1509.23 573.427 1474.38 573.427C1439.53 573.427 1411.29 601.652 1411.29 636.469C1411.29 671.286 1439.53 699.511 1474.38 699.511Z" fill="black"/>
<path opacity="0.1" d="M1509.47 699.511C1544.32 699.511 1572.57 671.286 1572.57 636.469C1572.57 601.652 1544.32 573.427 1509.47 573.427C1474.62 573.427 1446.37 601.652 1446.37 636.469C1446.37 671.286 1474.62 699.511 1509.47 699.511Z" fill="black"/>
<path opacity="0.1" d="M1529.79 673.679C1564.64 673.679 1592.89 645.454 1592.89 610.637C1592.89 575.82 1564.64 547.595 1529.79 547.595C1494.94 547.595 1466.69 575.82 1466.69 610.637C1466.69 645.454 1494.94 673.679 1529.79 673.679Z" fill="black"/>
<path opacity="0.1" d="M1581.5 701.971C1616.35 701.971 1644.6 673.747 1644.6 638.93C1644.6 604.113 1616.35 575.888 1581.5 575.888C1546.65 575.888 1518.4 604.113 1518.4 638.93C1518.4 673.747 1546.65 701.971 1581.5 701.971Z" fill="black"/>
<path opacity="0.1" d="M1702.16 757.329C1737.01 757.329 1765.26 729.106 1765.26 694.288C1765.26 659.471 1737.01 631.246 1702.16 631.246C1667.31 631.246 1639.06 659.471 1639.06 694.288C1639.06 729.106 1667.31 757.329 1702.16 757.329Z" fill="black"/>
<path opacity="0.1" d="M1665.84 725.96C1700.68 725.96 1728.93 697.735 1728.93 662.918C1728.93 628.101 1700.68 599.876 1665.84 599.876C1630.99 599.876 1602.74 628.101 1602.74 662.918C1602.74 697.735 1630.99 725.96 1665.84 725.96Z" fill="black"/>
<path opacity="0.1" d="M1642.45 694.59C1677.29 694.59 1705.54 666.365 1705.54 631.548C1705.54 596.731 1677.29 568.506 1642.45 568.506C1607.6 568.506 1579.35 596.731 1579.35 631.548C1579.35 666.365 1607.6 694.59 1642.45 694.59Z" fill="black"/>
<path opacity="0.1" d="M1598.12 647.23C1632.97 647.23 1661.22 619.005 1661.22 584.188C1661.22 549.371 1632.97 521.146 1598.12 521.146C1563.27 521.146 1535.02 549.371 1535.02 584.188C1535.02 619.005 1563.27 647.23 1598.12 647.23Z" fill="black"/>
<path opacity="0.1" d="M1680.61 699.511C1715.46 699.511 1743.71 671.286 1743.71 636.469C1743.71 601.652 1715.46 573.427 1680.61 573.427C1645.76 573.427 1617.51 601.652 1617.51 636.469C1617.51 671.286 1645.76 699.511 1680.61 699.511Z" fill="black"/>
</g>
<path d="M1646.99 849.047C1646.99 849.047 1685.56 816.653 1666.48 770.527L1647.39 763.384L1626.69 827.08L1646.99 849.047Z" fill="#67647E"/>
<path opacity="0.1" d="M1649.04 761.191L1653.61 762.897L1633.28 825.434L1651.02 844.625C1649.55 846.086 1648.64 846.851 1648.64 846.851L1628.33 824.884L1649.04 761.191Z" fill="black"/>
<path opacity="0.1" d="M1455.67 988.678C1645.37 988.678 1799.15 962.958 1799.15 931.229C1799.15 899.502 1645.37 873.78 1455.67 873.78C1265.98 873.78 1112.2 899.502 1112.2 931.229C1112.2 962.958 1265.98 988.678 1455.67 988.678Z" fill="#21AAE2"/>
<path d="M1720.05 842.25C1720.05 842.25 1707.5 854.788 1714.59 873.392C1721.68 891.997 1702.45 922.929 1702.45 922.929L1703.07 922.831C1728.84 918.287 1741.64 888.84 1727.31 866.96C1721.95 858.839 1717.58 849.294 1720.05 842.25Z" fill="#21AAE2"/>
<path d="M1720.05 842.25C1720.05 842.25 1712.97 857.618 1720.05 870.156C1727.14 882.691 1721.29 917.872 1702.44 922.929" stroke="#535461" stroke-miterlimit="10"/>
<path d="M1742.4 892.959C1742.4 892.959 1728.08 890.683 1726.78 903.505C1725.48 916.324 1699.24 918.101 1699.24 918.101L1699.73 918.427C1721.39 932.612 1742.09 927.474 1738.97 908.617C1737.82 901.605 1737.91 894.563 1742.4 892.959Z" fill="#21AAE2"/>
<path opacity="0.2" d="M1742.4 892.959C1742.4 892.959 1728.08 890.683 1726.78 903.505C1725.48 916.324 1699.24 918.101 1699.24 918.101L1699.73 918.427C1721.39 932.612 1742.09 927.474 1738.97 908.617C1737.82 901.605 1737.91 894.563 1742.4 892.959Z" fill="#F5F5F5"/>
<path d="M1742.4 892.959C1742.4 892.959 1731.29 895.427 1732.2 905.495C1733.11 915.566 1715.69 927.697 1699.25 918.101" stroke="#535461" stroke-miterlimit="10"/>
<path d="M1472.77 781.577L1477.78 801.618C1477.78 801.618 1513.19 806.231 1536.8 803.333C1540.98 802.741 1544.98 801.298 1548.57 799.09C1550.57 797.913 1553.71 797.4 1558.02 800.62C1565.38 806.17 1601.55 850.57 1595.7 896.634C1595.24 900.106 1593.66 903.33 1591.18 905.809C1588.71 908.288 1585.49 909.884 1582.01 910.349C1574.8 911.331 1567.9 913.938 1561.85 917.971L1543.95 929.879L1727.48 925.872L1708.43 902.827C1708.43 902.827 1695.39 891.806 1685.36 890.802C1682.43 890.51 1680.02 887.829 1678.07 884.185C1666.64 862.816 1652.98 842.725 1638.17 823.54C1627.38 809.567 1618.32 794.842 1619.17 785.592C1621.17 763.545 1619.17 727.477 1619.17 727.477L1581.06 722.47C1581.06 722.47 1586.07 770.569 1539.94 782.588C1493.81 794.606 1472.77 781.577 1472.77 781.577Z" fill="#67647E"/>
<g opacity="0.1">
<path opacity="0.1" d="M1503.86 790.6C1503.86 790.6 1524.92 803.622 1571.06 791.598C1617.19 779.573 1612.18 731.478 1612.18 731.478L1619.43 732.422C1619.29 729.339 1619.19 727.49 1619.19 727.49L1581.08 722.482C1581.08 722.482 1586.09 770.581 1539.96 782.6C1493.83 794.618 1472.77 781.602 1472.77 781.602L1477.78 801.644C1477.78 801.644 1491.31 803.407 1507.22 804.067L1503.86 790.6Z" fill="black"/>
<path opacity="0.1" d="M1592.94 926.987C1599 922.954 1605.89 920.347 1613.1 919.365C1616.57 918.904 1619.78 917.319 1622.26 914.849C1624.73 912.38 1626.32 909.168 1626.78 905.707C1632.67 859.64 1596.48 815.16 1589.13 809.636C1581.11 803.622 1577.09 810.634 1577.09 810.634C1574.25 811.379 1571.37 811.928 1568.45 812.28C1581.45 829.547 1600.05 862.669 1595.7 896.684C1595.23 900.146 1593.65 903.36 1591.17 905.827C1588.7 908.297 1585.48 909.882 1582.02 910.343C1574.81 911.325 1567.91 913.932 1561.85 917.965L1543.95 929.873L1590.1 928.868L1592.94 926.987Z" fill="black"/>
</g>
<path d="M1503.48 878.795C1503.48 878.795 1499.65 865.794 1504.2 856.225C1506.13 852.222 1506.72 847.702 1505.86 843.343C1505.43 841.274 1504.81 839.248 1504.01 837.293" stroke="#535461" stroke-width="2" stroke-miterlimit="10"/>
<path d="M1506.87 831.244C1506.87 832.834 1503.99 837.459 1503.99 837.459C1503.99 837.459 1501.11 832.834 1501.11 831.244C1501.11 830.477 1501.42 829.745 1501.96 829.203C1502.5 828.662 1503.24 828.358 1504 828.358C1504.77 828.358 1505.5 828.662 1506.05 829.203C1506.59 829.745 1506.89 830.477 1506.89 831.244H1506.87Z" fill="#21AAE2"/>
<path d="M1511.65 840.067C1510.79 841.405 1505.85 843.717 1505.85 843.717C1505.85 843.717 1505.94 838.274 1506.81 836.935C1507.01 836.605 1507.27 836.317 1507.58 836.092C1507.9 835.867 1508.25 835.706 1508.63 835.619C1509.01 835.533 1509.4 835.522 1509.78 835.589C1510.16 835.657 1510.52 835.8 1510.85 836.01C1511.17 836.221 1511.45 836.493 1511.67 836.813C1511.88 837.133 1512.03 837.493 1512.11 837.873C1512.18 838.251 1512.18 838.642 1512.1 839.02C1512.02 839.399 1511.87 839.757 1511.65 840.075V840.067Z" fill="#21AAE2"/>
<path d="M1511.44 855.138C1510.01 855.855 1504.59 855.362 1504.59 855.362C1504.59 855.362 1507.42 850.705 1508.84 849.99C1509.18 849.819 1509.55 849.717 1509.93 849.688C1510.31 849.662 1510.69 849.709 1511.05 849.827C1511.41 849.946 1511.74 850.135 1512.03 850.383C1512.31 850.63 1512.55 850.93 1512.72 851.27C1512.89 851.608 1512.99 851.977 1513.02 852.355C1513.05 852.733 1513 853.112 1512.88 853.472C1512.77 853.832 1512.58 854.164 1512.33 854.452C1512.08 854.74 1511.78 854.975 1511.44 855.144V855.138Z" fill="#21AAE2"/>
<path d="M1508.71 866.529C1507.43 867.479 1502 867.904 1502 867.904C1502 867.904 1504 862.834 1505.28 861.892C1505.9 861.474 1506.65 861.311 1507.39 861.435C1508.12 861.56 1508.78 861.965 1509.22 862.564C1509.67 863.164 1509.86 863.911 1509.77 864.649C1509.67 865.388 1509.29 866.062 1508.71 866.529Z" fill="#21AAE2"/>
<path d="M1499.78 844.039C1500.92 845.148 1506.26 846.301 1506.26 846.301C1506.26 846.301 1504.95 841.011 1503.79 839.902C1503.23 839.395 1502.5 839.123 1501.75 839.145C1501 839.165 1500.29 839.479 1499.76 840.018C1499.24 840.556 1498.95 841.278 1498.95 842.029C1498.95 842.78 1499.24 843.5 1499.76 844.039H1499.78Z" fill="#21AAE2"/>
<path d="M1496.76 857.372C1498.18 858.087 1503.61 857.594 1503.61 857.594C1503.61 857.594 1500.78 852.937 1499.36 852.222C1498.67 851.878 1497.88 851.82 1497.15 852.059C1496.42 852.299 1495.82 852.818 1495.48 853.502C1495.13 854.186 1495.07 854.977 1495.31 855.704C1495.55 856.432 1496.07 857.034 1496.76 857.378V857.372Z" fill="#21AAE2"/>
<path d="M1495.6 870.747C1496.88 871.697 1502.31 872.122 1502.31 872.122C1502.31 872.122 1500.31 867.052 1499.03 866.111C1498.41 865.692 1497.66 865.529 1496.92 865.654C1496.19 865.778 1495.53 866.183 1495.08 866.783C1494.64 867.382 1494.45 868.129 1494.54 868.868C1494.64 869.606 1495.02 870.28 1495.6 870.747Z" fill="#21AAE2"/>
<path d="M1495.15 877.523C1495.15 877.523 1502.15 876.125 1504.02 874.255C1505.88 872.387 1514.29 869.125 1515.23 871.456C1516.16 873.786 1527.83 881.717 1519.89 883.118C1511.95 884.517 1501.21 884.968 1498.91 884.048C1496.6 883.13 1495.15 877.523 1495.15 877.523Z" fill="#A8A8A8"/>
<path opacity="0.2" d="M1519.9 882.273C1511.96 883.672 1501.22 884.122 1498.91 883.203C1497.13 882.494 1495.9 879.079 1495.41 877.493L1495.18 877.544C1495.18 877.544 1496.58 883.142 1498.91 884.072C1501.24 885.004 1511.98 884.541 1519.9 883.142C1522.19 882.736 1522.84 881.792 1522.59 880.588C1522.4 881.353 1521.6 881.957 1519.9 882.273Z" fill="black"/>
<path d="M1611.29 921.406C1611.29 921.406 1632.54 917.158 1638.21 911.496C1643.88 905.835 1669.38 895.926 1672.21 903.006C1675.04 910.084 1710.48 934.147 1686.41 938.395C1662.34 942.644 1629.73 944.057 1622.65 941.225C1615.56 938.395 1611.29 921.406 1611.29 921.406Z" fill="#A8A8A8"/>
<path opacity="0.2" d="M1686.38 935.761C1662.31 940.012 1629.71 941.422 1622.62 938.593C1617.23 936.435 1613.48 926.075 1612 921.259L1611.29 921.406C1611.29 921.406 1615.54 938.396 1622.62 941.225C1629.7 944.057 1662.29 942.644 1686.38 938.395C1693.33 937.162 1695.32 934.288 1694.57 930.649C1693.98 933.024 1691.56 934.855 1686.38 935.761Z" fill="black"/>
<path d="M1755.12 800.749C1755.04 803.284 1754.25 805.744 1752.83 807.847C1751.4 805.752 1750.6 803.294 1750.51 800.761C1750.51 796.846 1751.52 793.671 1752.8 793.665C1754.07 793.657 1755.11 796.834 1755.12 800.749Z" fill="#21AAE2"/>
<path d="M1580.89 797.307C1580.8 799.843 1580 802.3 1578.58 804.399C1577.16 802.3 1576.36 799.843 1576.27 797.307C1576.27 793.393 1577.3 790.217 1578.58 790.217C1579.86 790.217 1580.89 793.393 1580.89 797.307Z" fill="#21AAE2"/>
<path d="M1770.78 867.189C1772.2 869.288 1773.01 871.745 1773.09 874.281C1770.7 873.42 1768.61 871.9 1767.05 869.902C1764.74 866.732 1763.71 863.557 1764.74 862.81C1765.77 862.063 1768.48 864.026 1770.78 867.189Z" fill="#21AAE2"/>
<path d="M1697.05 830.059C1696.96 832.592 1696.16 835.052 1694.74 837.151C1693.32 835.052 1692.52 832.592 1692.43 830.059C1692.43 826.144 1693.46 822.969 1694.74 822.969C1696.02 822.969 1697.05 826.156 1697.05 830.059Z" fill="#21AAE2"/>
<path d="M1653.92 806.502C1653.83 809.036 1653.03 811.495 1651.61 813.594C1650.19 811.495 1649.39 809.036 1649.3 806.502C1649.3 802.586 1650.33 799.41 1651.61 799.41C1652.89 799.41 1653.92 802.586 1653.92 806.502Z" fill="#21AAE2"/>
<path d="M1627.16 820.865C1628.35 823.105 1628.88 825.637 1628.69 828.167C1626.4 827.054 1624.47 825.319 1623.13 823.16C1621.18 819.761 1620.5 816.492 1621.61 815.858C1622.71 815.222 1625.22 817.466 1627.16 820.865Z" fill="#21AAE2"/>
<path d="M1607.17 886.01C1605.26 887.681 1602.92 888.779 1600.41 889.18C1600.97 886.706 1602.22 884.442 1604.01 882.649C1606.87 879.973 1609.9 878.554 1610.77 879.48C1611.64 880.403 1610.03 883.334 1607.17 886.01Z" fill="#21AAE2"/>
<path opacity="0.1" d="M1607.17 886.01C1605.26 887.681 1602.92 888.779 1600.41 889.18C1600.97 886.706 1602.22 884.442 1604.01 882.649C1606.87 879.973 1609.9 878.554 1610.77 879.48C1611.64 880.403 1610.03 883.334 1607.17 886.01Z" fill="black"/>
<path d="M1649.15 881.989C1647.24 883.662 1644.89 884.76 1642.39 885.159C1642.95 882.685 1644.2 880.423 1645.99 878.628C1648.84 875.952 1651.88 874.533 1652.75 875.459C1653.62 876.382 1652 879.307 1649.15 881.989Z" fill="#21AAE2"/>
<path opacity="0.1" d="M1649.15 881.989C1647.24 883.662 1644.89 884.76 1642.39 885.159C1642.95 882.685 1644.2 880.423 1645.99 878.628C1648.84 875.952 1651.88 874.533 1652.75 875.459C1653.62 876.382 1652 879.307 1649.15 881.989Z" fill="black"/>
<path d="M1657.2 924.501C1655.29 926.174 1652.94 927.272 1650.44 927.671C1651 925.192 1652.24 922.921 1654.04 921.122C1656.9 918.446 1659.93 917.027 1660.8 917.953C1661.67 918.878 1660.06 921.819 1657.2 924.501Z" fill="#21AAE2"/>
<path opacity="0.1" d="M1657.2 924.501C1655.29 926.174 1652.94 927.272 1650.44 927.671C1651 925.192 1652.24 922.921 1654.04 921.122C1656.9 918.446 1659.93 917.027 1660.8 917.953C1661.67 918.878 1660.06 921.819 1657.2 924.501Z" fill="black"/>
<path d="M1153.84 856.539C1163.3 870.494 1160.28 920.456 1160.28 920.456C1160.28 920.456 1112.73 904.724 1103.26 890.776C1098.72 884.074 1097.03 875.845 1098.56 867.896C1100.09 859.948 1104.72 852.933 1111.42 848.392C1118.13 843.854 1126.37 842.162 1134.32 843.691C1142.28 845.221 1149.3 849.843 1153.85 856.545L1153.84 856.539Z" fill="#21AAE2"/>
<path opacity="0.1" d="M1153.84 856.539C1163.3 870.494 1160.28 920.456 1160.28 920.456C1160.28 920.456 1112.73 904.724 1103.26 890.776C1098.72 884.074 1097.03 875.845 1098.56 867.896C1100.09 859.948 1104.72 852.933 1111.42 848.392C1118.13 843.854 1126.37 842.162 1134.32 843.691C1142.28 845.221 1149.3 849.843 1153.85 856.545L1153.84 856.539Z" fill="black"/>
<path d="M1111.6 848.423C1111.6 848.423 1147.24 875.915 1160.47 920.506" stroke="#535461" stroke-miterlimit="10"/>
<path d="M1169.44 882.623C1169.44 882.623 1144.14 878.306 1161.42 920.184C1161.42 920.184 1179 913.489 1180.37 896.825C1180.65 893.583 1179.72 890.355 1177.77 887.751C1175.82 885.145 1172.98 883.346 1169.79 882.691L1169.44 882.623Z" fill="#21AAE2"/>
<path d="M1169.81 882.581C1169.81 882.581 1174.63 905.743 1161.44 920.196" stroke="#535461" stroke-miterlimit="10"/>
<path d="M1720.54 921.486C1720.54 921.486 1731.1 919.389 1733.92 916.596C1736.73 913.803 1749.41 908.912 1750.81 912.402C1752.22 915.894 1769.82 927.769 1757.86 929.86C1745.89 931.951 1729.69 932.654 1726.17 931.261C1722.66 929.866 1720.54 921.486 1720.54 921.486Z" fill="#A8A8A8"/>
<path opacity="0.2" d="M1757.88 928.572C1745.91 930.667 1729.71 931.366 1726.19 929.971C1723.51 928.905 1721.65 923.805 1720.91 921.418L1720.56 921.492C1720.56 921.492 1722.67 929.873 1726.19 931.273C1729.72 932.672 1745.91 931.97 1757.88 929.873C1761.33 929.257 1762.32 927.85 1761.95 926.049C1761.63 927.216 1760.43 928.122 1757.88 928.572Z" fill="black"/>
<path d="M1678.15 787.466C1713 787.466 1741.25 759.241 1741.25 724.424C1741.25 689.607 1713 661.382 1678.15 661.382C1643.3 661.382 1615.05 689.607 1615.05 724.424C1615.05 759.241 1643.3 787.466 1678.15 787.466Z" fill="#21AAE2"/>
<path d="M1611.05 770.243C1645.89 770.243 1674.14 742.018 1674.14 707.201C1674.14 672.384 1645.89 644.159 1611.05 644.159C1576.2 644.159 1547.95 672.384 1547.95 707.201C1547.95 742.018 1576.2 770.243 1611.05 770.243Z" fill="#21AAE2"/>
<path d="M1537.18 770.859C1572.03 770.859 1600.28 742.634 1600.28 707.818C1600.28 673 1572.03 644.776 1537.18 644.776C1502.33 644.776 1474.08 673 1474.08 707.818C1474.08 742.634 1502.33 770.859 1537.18 770.859Z" fill="#21AAE2"/>
<path d="M1513.17 787.466C1548.02 787.466 1576.27 759.241 1576.27 724.424C1576.27 689.607 1548.02 661.382 1513.17 661.382C1478.32 661.382 1450.07 689.607 1450.07 724.424C1450.07 759.241 1478.32 787.466 1513.17 787.466Z" fill="#21AAE2"/>
<path d="M1472.54 793.004C1507.39 793.004 1535.64 764.779 1535.64 729.963C1535.64 695.145 1507.39 666.92 1472.54 666.92C1437.69 666.92 1409.44 695.145 1409.44 729.963C1409.44 764.779 1437.69 793.004 1472.54 793.004Z" fill="#21AAE2"/>
<path d="M1455.92 743.183C1490.76 743.183 1519.01 714.958 1519.01 680.141C1519.01 645.324 1490.76 617.1 1455.92 617.1C1421.07 617.1 1392.82 645.324 1392.82 680.141C1392.82 714.958 1421.07 743.183 1455.92 743.183Z" fill="#21AAE2"/>
<path d="M1474.38 685.365C1509.23 685.365 1537.48 657.14 1537.48 622.323C1537.48 587.506 1509.23 559.281 1474.38 559.281C1439.53 559.281 1411.29 587.506 1411.29 622.323C1411.29 657.14 1439.53 685.365 1474.38 685.365Z" fill="#21AAE2"/>
<path d="M1509.47 685.365C1544.32 685.365 1572.57 657.14 1572.57 622.323C1572.57 587.506 1544.32 559.281 1509.47 559.281C1474.62 559.281 1446.37 587.506 1446.37 622.323C1446.37 657.14 1474.62 685.365 1509.47 685.365Z" fill="#21AAE2"/>
<path d="M1529.79 659.532C1564.64 659.532 1592.89 631.308 1592.89 596.491C1592.89 561.674 1564.64 533.449 1529.79 533.449C1494.94 533.449 1466.69 561.674 1466.69 596.491C1466.69 631.308 1494.94 659.532 1529.79 659.532Z" fill="#21AAE2"/>
<path d="M1581.5 687.825C1616.35 687.825 1644.6 659.6 1644.6 624.783C1644.6 589.966 1616.35 561.741 1581.5 561.741C1546.65 561.741 1518.4 589.966 1518.4 624.783C1518.4 659.6 1546.65 687.825 1581.5 687.825Z" fill="#21AAE2"/>
<path d="M1702.16 743.183C1737.01 743.183 1765.26 714.958 1765.26 680.141C1765.26 645.324 1737.01 617.1 1702.16 617.1C1667.31 617.1 1639.06 645.324 1639.06 680.141C1639.06 714.958 1667.31 743.183 1702.16 743.183Z" fill="#21AAE2"/>
<path d="M1665.84 711.814C1700.68 711.814 1728.93 683.589 1728.93 648.772C1728.93 613.955 1700.68 585.73 1665.84 585.73C1630.99 585.73 1602.74 613.955 1602.74 648.772C1602.74 683.589 1630.99 711.814 1665.84 711.814Z" fill="#21AAE2"/>
<path d="M1642.44 680.444C1677.29 680.444 1705.54 652.219 1705.54 617.402C1705.54 582.585 1677.29 554.36 1642.44 554.36C1607.6 554.36 1579.35 582.585 1579.35 617.402C1579.35 652.219 1607.6 680.444 1642.44 680.444Z" fill="#21AAE2"/>
<path d="M1598.12 633.084C1632.97 633.084 1661.22 604.859 1661.22 570.042C1661.22 535.225 1632.97 507 1598.12 507C1563.27 507 1535.02 535.225 1535.02 570.042C1535.02 604.859 1563.27 633.084 1598.12 633.084Z" fill="#21AAE2"/>
<path d="M1680.61 685.365C1715.46 685.365 1743.71 657.14 1743.71 622.323C1743.71 587.506 1715.46 559.281 1680.61 559.281C1645.76 559.281 1617.51 587.506 1617.51 622.323C1617.51 657.14 1645.76 685.365 1680.61 685.365Z" fill="#21AAE2"/>
<path opacity="0.1" d="M1740.97 632.196C1740.97 632.196 1682.21 604.353 1646.65 653.699L1740.97 632.196Z" fill="black"/>
<path opacity="0.1" d="M1586.62 575.789C1586.62 575.789 1521.61 573.828 1508.85 633.275L1586.62 575.789Z" fill="black"/>
<path opacity="0.1" d="M1505.81 704.771C1505.81 704.771 1447.05 676.922 1411.49 726.256L1505.81 704.771Z" fill="black"/>
<path d="M1248.62 861.922C1248.62 861.922 1252.01 866.35 1247.06 873.021C1242.1 879.695 1238.02 885.356 1239.65 889.524C1239.65 889.524 1247.13 877.105 1253.23 876.932C1259.33 876.759 1255.32 869.391 1248.62 861.922Z" fill="#21AAE2"/>
<path opacity="0.1" d="M1248.62 861.922C1248.92 862.349 1249.15 862.816 1249.32 863.309C1255.25 870.278 1258.42 876.785 1252.71 876.95C1247.4 877.105 1241.01 886.602 1239.49 889.001C1239.54 889.186 1239.6 889.369 1239.67 889.548C1239.67 889.548 1247.14 877.129 1253.25 876.956C1259.35 876.785 1255.32 869.391 1248.62 861.922Z" fill="black"/>
<path d="M1254.93 867.572C1254.93 869.131 1254.75 870.395 1254.54 870.395C1254.32 870.395 1254.15 869.161 1254.15 867.572C1254.15 865.98 1254.36 866.744 1254.58 866.744C1254.8 866.744 1254.93 866.012 1254.93 867.572Z" fill="#FFD037"/>
<path d="M1257.09 869.427C1255.72 870.174 1254.52 870.623 1254.42 870.433C1254.32 870.242 1255.35 869.483 1256.72 868.737C1258.09 867.99 1257.54 868.534 1257.65 868.737C1257.75 868.94 1258.46 868.707 1257.09 869.427Z" fill="#FFD037"/>
<path d="M1230.71 861.922C1230.71 861.922 1227.32 866.35 1232.28 873.021C1237.24 879.695 1241.32 885.356 1239.69 889.524C1239.69 889.524 1232.21 877.105 1226.11 876.932C1220 876.759 1224.02 869.391 1230.71 861.922Z" fill="#21AAE2"/>
<path opacity="0.1" d="M1230.71 861.922C1230.42 862.349 1230.19 862.816 1230.02 863.309C1224.08 870.278 1220.92 876.785 1226.63 876.95C1231.94 877.105 1238.32 886.602 1239.85 889.001C1239.8 889.186 1239.74 889.369 1239.67 889.548C1239.67 889.548 1232.19 877.129 1226.09 876.956C1219.99 876.785 1224.02 869.391 1230.71 861.922Z" fill="black"/>
<path d="M1224.41 867.572C1224.41 869.131 1224.58 870.395 1224.8 870.395C1225.02 870.395 1225.19 869.161 1225.19 867.572C1225.19 865.98 1224.97 866.744 1224.76 866.744C1224.54 866.744 1224.41 866.012 1224.41 867.572Z" fill="#FFD037"/>
<path d="M1222.24 869.427C1223.62 870.174 1224.81 870.623 1224.91 870.433C1225.01 870.242 1223.99 869.483 1222.62 868.737C1221.24 867.99 1221.79 868.534 1221.68 868.737C1221.58 868.94 1220.9 868.707 1222.24 869.427Z" fill="#FFD037"/>
<path d="M1225.49 888.962C1225.49 888.962 1234.97 888.673 1237.84 886.638C1240.7 884.603 1252.42 882.18 1253.12 885.437C1253.83 888.693 1267.37 901.647 1256.67 901.734C1245.96 901.82 1231.8 900.069 1228.95 898.331C1226.1 896.592 1225.49 888.962 1225.49 888.962Z" fill="#A8A8A8"/>
<path opacity="0.2" d="M1256.85 900.607C1246.15 900.691 1231.98 898.94 1229.13 897.202C1226.96 895.881 1226.1 891.14 1225.81 888.95H1225.49C1225.49 888.95 1226.11 896.592 1228.94 898.325C1231.77 900.057 1245.96 901.814 1256.66 901.728C1259.75 901.728 1260.81 900.607 1260.76 898.979C1260.33 899.971 1259.17 900.587 1256.85 900.607Z" fill="black"/>
<path d="M1171.79 949.945C1172.93 949.023 1173.75 947.782 1174.16 946.381C1174.47 944.962 1173.86 943.268 1172.5 942.748C1170.99 942.169 1169.36 943.217 1168.13 944.284C1166.91 945.351 1165.49 946.56 1163.88 946.331C1164.71 945.582 1165.33 944.63 1165.68 943.57C1166.03 942.511 1166.1 941.378 1165.88 940.283C1165.81 939.828 1165.62 939.402 1165.33 939.05C1164.48 938.148 1162.96 938.536 1161.94 939.247C1158.73 941.503 1157.84 945.858 1157.82 949.778C1157.5 948.367 1157.77 946.892 1157.76 945.461C1157.75 944.032 1157.35 942.378 1156.13 941.628C1155.37 941.219 1154.52 941.018 1153.66 941.04C1152.22 940.986 1150.61 941.132 1149.62 942.187C1148.39 943.495 1148.72 945.697 1149.78 947.122C1150.85 948.545 1152.47 949.464 1153.96 950.462C1155.16 951.175 1156.18 952.147 1156.95 953.306C1157.04 953.467 1157.11 953.636 1157.17 953.811H1166.21C1168.24 952.781 1170.12 951.481 1171.79 949.945Z" fill="#21AAE2"/>
<path d="M1733.46 958.579C1734.59 957.657 1735.41 956.413 1735.82 955.015C1736.13 953.596 1735.53 951.899 1734.17 951.382C1732.65 950.803 1731.03 951.851 1729.8 952.918C1728.57 953.984 1727.16 955.194 1725.55 954.964C1726.37 954.216 1726.99 953.264 1727.34 952.203C1727.69 951.143 1727.76 950.01 1727.54 948.915C1727.48 948.462 1727.28 948.035 1726.99 947.683C1726.14 946.782 1724.62 947.17 1723.61 947.88C1720.4 950.136 1719.5 954.489 1719.49 958.412C1719.16 956.999 1719.44 955.526 1719.42 954.095C1719.41 952.664 1719.02 951.012 1717.79 950.259C1717.04 949.853 1716.18 949.651 1715.32 949.673C1713.88 949.619 1712.28 949.766 1711.29 950.821C1710.05 952.129 1710.38 954.33 1711.45 955.755C1712.52 957.178 1714.13 958.098 1715.63 959.096C1716.82 959.808 1717.85 960.778 1718.62 961.94C1718.7 962.101 1718.78 962.27 1718.84 962.445H1727.88C1729.91 961.414 1731.78 960.112 1733.46 958.579Z" fill="#21AAE2"/>
</g>
<defs>
<clipPath id="clip0">
<rect width="705" height="483" fill="white" transform="translate(1098 507)"/>
</clipPath>
</defs>
</svg>
