<svg width="12" height="12" viewBox="0 0 12 12" fill="none" xmlns="http://www.w3.org/2000/svg">
<path d="M4.95428 1.04572C5.34186 0.658586 5.97186 0.658365 6.35922 1.04572C6.74823 1.43517 6.74823 2.06297 6.35922 2.4533C5.97186 2.84066 5.34208 2.84022 4.9545 2.45352C4.56516 2.06286 4.56604 1.43506 4.95428 1.04572Z" fill="#303334"/>
<path d="M7.07928 3.17378C7.4674 2.78389 8.09741 2.78433 8.48554 3.17378C8.87311 3.56091 8.87289 4.19092 8.48554 4.57916C8.0973 4.96651 7.46752 4.96607 7.07928 4.57916C6.69104 4.19092 6.69093 3.5608 7.07928 3.17378Z" fill="#303334"/>
<path d="M9.20496 5.29736C9.5932 4.90956 10.2225 4.90956 10.6112 5.29736C10.9981 5.68604 10.9984 6.31604 10.611 6.7034C10.2225 7.09141 9.59298 7.09119 9.20474 6.7034C8.81661 6.31615 8.81661 5.68615 9.20496 5.29736Z" fill="#303334"/>
<path d="M4.9545 5.29758C5.34186 4.90978 5.97197 4.90967 6.35921 5.2978C6.74822 5.68637 6.74844 6.31615 6.35899 6.7034C5.97186 7.09185 5.34197 7.0913 4.9545 6.70339C4.56516 6.31626 4.56494 5.68625 4.9545 5.29758Z" fill="#303334"/>
<path d="M7.07923 7.42334C7.46747 7.0351 8.09725 7.0351 8.48549 7.42334C8.87306 7.81135 8.87284 8.44136 8.48549 8.8296C8.09725 9.21783 7.46725 9.21761 7.07923 8.82959C6.6911 8.44147 6.69077 7.81135 7.07923 7.42334Z" fill="#303334"/>
<path d="M4.95408 9.54946C5.34166 9.161 5.97177 9.16133 6.35902 9.54946C6.74825 9.93693 6.74825 10.5669 6.3588 10.9542C5.97144 11.3424 5.34155 11.3423 4.9543 10.9542C4.56485 10.5669 4.56496 9.93704 4.95408 9.54946Z" fill="#303334"/>
</svg>
